Patient4_TMGait_0pt4_01_left_42_GRF.mot
version=1
nRows=71
nColumns=19
inDegrees=no
endheader
time	F1x	F1y	F1z	M1x	M1y	M1z	F2x	F2y	F2z	M2x	M2y	M2z	EC1x	EC1y	EC1z	EC2x	EC2y	EC2z
52.84	1.4557	7.7784	7.3924	-3.2919	-6.0083	8.1976	-21.4635	719.5445	-58.6273	264.7531	70.5196	761.3723	-0.0592	0.0182	-0.0073	-0.0462	0.0165	0.9585
52.8528	1.084	5.4035	4.98	-2.2907	-4.0556	5.75	-17.6448	725.6911	-59.2675	266.9942	69.1983	766.8339	-0.0592	0.0182	-0.0073	-0.0462	0.0165	0.9585
52.8656	0.74156	3.4304	2.9561	-1.4559	-2.4204	3.7396	-14.1715	733.915	-59.7814	269.9646	67.9187	773.7364	-0.0592	0.0182	-0.0073	-0.0462	0.0165	0.9585
52.8784	0.45306	1.9754	1.4274	-0.83499	-1.1882	2.282	-11.1939	744.0412	-60.1843	273.6124	66.7771	781.8894	-0.0592	0.0182	-0.0073	-0.0462	0.0165	0.9585
52.8911	0.23322	1.014	0.38017	-0.4193	-0.34395	1.3269	-8.6952	755.5758	-60.5063	277.7727	65.7983	790.8513	-0.0592	0.0182	-0.0073	-0.0462	0.0165	0.9585
52.9039	0.065414	0.46171	-0.25779	-0.17258	0.16325	0.78053	-6.5552	767.7088	-60.743	282.1692	64.9244	799.8841	-0.0592	0.0182	-0.0073	-0.0462	0.0165	0.9585
52.9167	-0.060478	0.18482	-0.58474	-0.042264	0.40954	0.49378	-4.6448	779.3805	-60.8661	286.429	64.067	808.0123	-0.0592	0.0182	-0.0073	-0.0462	0.0165	0.9585
52.9295	-0.16933	0.03696	-0.68668	0.027258	0.45879	0.31502	-2.8318	789.392	-60.825	290.1218	63.119	814.126	-0.0592	0.0182	-0.0073	-0.0462	0.0165	0.9585
52.9423	-0.27827	-0.12332	-0.64564	0.088666	0.37649	0.088592	-1.014	796.6066	-60.5704	292.8313	61.9849	817.1794	-0.0592	0.0182	-0.0073	-0.0462	0.0165	0.9585
52.9551	-0.40164	-0.43795	-0.51325	0.19466	0.20272	-0.32778	0.87475	800.1314	-60.0671	294.2237	60.5961	816.3758	-0.0592	0.0182	-0.0073	-0.0462	0.0165	0.9585
52.9679	-0.54079	-1.0304	-0.3416	0.39109	-0.017635	-1.0584	2.8883	799.427	-59.3389	294.0882	58.9454	811.2733	-0.0592	0.0182	-0.0073	-0.0462	0.0165	0.9585
52.9806	-0.68355	-1.9991	-0.16123	0.71706	-0.24877	-2.2108	5.0514	794.4373	-58.4312	292.3902	57.0588	801.9052	-0.0592	0.0182	-0.0073	-0.0462	0.0165	0.9585
52.9934	-0.80469	-3.3896	-0.011119	1.1923	-0.44158	-3.8334	7.398	785.6657	-57.4239	289.3059	54.9973	788.8297	-0.0592	0.0182	-0.0073	-0.0462	0.0165	0.9585
53.0062	-0.85573	-5.1796	0.088852	1.8091	-0.55633	-5.8936	9.9634	774.1637	-56.4058	285.2196	52.8346	773.1303	-0.0592	0.0182	-0.0073	-0.0462	0.0165	0.9585
53.019	-0.76408	-7.2022	0.10316	2.5091	-0.53157	-8.1986	12.7894	761.3339	-55.4914	280.6527	50.6671	756.2088	-0.0592	0.0182	-0.0073	-0.0462	0.0165	0.9585
53.0318	-0.42172	-9.0994	0.002269	3.1674	-0.29473	-10.3419	15.9118	748.6995	-54.7907	276.1776	48.5859	739.5685	-0.0592	0.0182	-0.0073	-0.0462	0.0165	0.9585
53.0446	0.30888	-10.2454	-0.25524	3.5639	0.25001	-11.6093	19.3619	737.6372	-54.4112	272.3108	46.6813	724.5694	-0.0592	0.0182	-0.0073	-0.0462	0.0165	0.9585
53.0574	1.5653	-9.6731	-0.69157	3.3592	1.183	-10.9035	23.1218	729.0728	-54.4249	269.3969	45.0265	712.1415	-0.0592	0.0182	-0.0073	-0.0462	0.0165	0.9585
53.0701	3.4892	-6.0367	-1.3213	2.0807	2.5698	-6.706	27.1004	723.2703	-54.864	267.523	43.6848	702.5864	-0.0592	0.0182	-0.0073	-0.0462	0.0165	0.9585
53.0829	6.1427	2.341	-2.1264	-0.86106	4.4102	2.894	31.1256	719.6905	-55.6863	266.4702	42.6799	695.4493	-0.0592	0.0182	-0.0073	-0.0462	0.0165	0.9585
53.0957	9.4663	17.3367	-3.0494	-6.1253	6.6104	20.0329	34.9091	716.9975	-56.7588	265.7183	41.9922	689.5449	-0.0592	0.0182	-0.0073	-0.0462	0.0165	0.9585
53.1085	13.1557	40.705	-3.9513	-14.325	8.9015	46.7071	38.115	713.1944	-57.8603	264.5016	41.5428	683.0813	-0.0592	0.0182	-0.0073	-0.0462	0.0165	0.9585
53.1213	16.5629	73.5056	-4.5943	-25.8275	10.7779	84.1094	40.3785	705.9131	-58.6935	261.9187	41.1978	673.9304	-0.0592	0.0182	-0.0073	-0.0462	0.0165	0.9585
53.1341	18.5422	115.2583	-4.5877	-40.4585	11.3928	131.685	41.3505	692.7836	-58.9296	257.0768	40.7948	659.953	-0.0592	0.0182	-0.0073	-0.0462	0.0165	0.9585
53.1469	17.6592	163.0225	-3.3922	-57.1738	9.638	186.0879	40.78	671.9471	-58.2724	249.2843	40.1694	639.467	-0.0592	0.0182	-0.0073	-0.0462	0.0165	0.9585
53.1596	13.5594	211.6281	-0.35648	-74.1218	4.6769	241.4311	38.5938	642.6535	-56.535	238.2739	39.197	611.7817	-0.0592	0.0182	-0.0073	-0.0462	0.0165	0.9585
53.1724	7.6144	256.598	4.7112	-89.7131	-3.1431	292.4591	34.9779	605.7508	-53.7163	224.3831	37.8308	577.6155	-0.0592	0.0182	-0.0073	-0.0462	0.0165	0.9585
53.1852	1.2629	297.1286	10.9287	-103.6779	-12.345	338.0308	30.3826	563.6265	-50.0552	208.5185	36.1346	539.0369	-0.0592	0.0182	-0.0073	-0.0462	0.0165	0.9585
53.198	-4.3986	334.4493	17.9968	-116.4584	-22.1676	379.4058	25.482	519.2344	-45.9662	191.8084	34.2353	498.5515	-0.0592	0.0182	-0.0073	-0.0462	0.0165	0.9585
53.2108	-8.7871	370.2021	25.1695	-128.6679	-31.6028	418.4049	20.9286	475.1769	-41.7538	175.2571	32.1461	458.3322	-0.0592	0.0182	-0.0073	-0.0462	0.0165	0.9585
53.2236	-11.8304	405.5145	32.168	-140.7231	-40.2795	456.3858	17.2119	433.027	-37.5706	159.4886	29.7996	419.6228	-0.0592	0.0182	-0.0073	-0.0462	0.0165	0.9585
53.2364	-13.6331	440.5437	38.3938	-152.7178	-47.6025	493.5315	14.5193	393.2549	-33.4451	144.6964	27.1242	382.7382	-0.0592	0.0182	-0.0073	-0.0462	0.0165	0.9585
53.2491	-14.3829	474.7865	43.7042	-164.4806	-53.4649	529.3751	12.747	355.4363	-29.3787	130.7266	24.1349	347.2351	-0.0592	0.0182	-0.0073	-0.0462	0.0165	0.9585
53.2619	-14.1634	507.5558	47.8651	-175.7736	-57.6799	563.1913	11.574	318.7901	-25.3688	117.272	20.9251	312.4195	-0.0592	0.0182	-0.0073	-0.0462	0.0165	0.9585
53.2747	-13.1229	538.472	51.0749	-186.433	-60.5096	594.6894	10.6225	282.5541	-21.4711	104.0192	17.6739	277.6473	-0.0592	0.0182	-0.0073	-0.0462	0.0165	0.9585
53.2875	-11.3105	567.5142	53.4001	-196.4274	-62.0796	623.8872	9.5207	246.2943	-17.7575	90.7734	14.582	242.5946	-0.0592	0.0182	-0.0073	-0.0462	0.0165	0.9585
53.3003	-8.9914	594.8072	55.2468	-205.7575	-62.9172	651.0533	7.9874	210.0906	-14.342	77.5314	11.8659	207.4347	-0.0592	0.0182	-0.0073	-0.0462	0.0165	0.9585
53.3131	-6.5139	620.5293	56.9251	-214.4528	-63.5008	676.4326	5.926	174.5469	-11.3231	64.4958	9.67	172.8046	-0.0592	0.0182	-0.0073	-0.0462	0.0165	0.9585
53.3259	-4.2512	645.0797	58.8465	-222.6147	-64.4077	700.5563	3.3793	140.6789	-8.7741	52.0316	8.0603	139.7373	-0.0592	0.0182	-0.0073	-0.0462	0.0165	0.9585
53.3386	-2.3842	668.9464	61.1092	-230.4034	-65.8319	723.9995	0.63379	109.6275	-6.6963	40.5644	6.9533	109.3449	-0.0592	0.0182	-0.0073	-0.0462	0.0165	0.9585
53.3514	-0.97944	692.4441	63.7683	-237.9311	-67.8634	747.1322	-1.9499	82.3589	-5.0403	30.4629	6.1807	82.5837	-0.0592	0.0182	-0.0073	-0.0462	0.0165	0.9585
53.3642	-0.055623	715.3961	66.6417	-245.1661	-70.3279	769.7471	-4.0061	59.3777	-3.7116	21.9371	5.5314	59.9369	-0.0592	0.0182	-0.0073	-0.0462	0.0165	0.9585
53.377	0.44159	737.1363	69.5885	-251.9179	-73.0565	791.0975	-5.3401	40.7987	-2.645	15.0446	4.8767	41.5472	-0.0592	0.0182	-0.0073	-0.0462	0.0165	0.9585
53.3898	0.58789	756.7714	72.4056	-257.926	-75.8016	810.1938	-5.8845	26.3948	-1.7932	9.7089	4.1529	27.2105	-0.0592	0.0182	-0.0073	-0.0462	0.0165	0.9585
53.4026	0.52225	773.3623	74.976	-262.9152	-78.3808	825.9871	-5.686	15.7202	-1.134	5.765	3.3611	16.5101	-0.0592	0.0182	-0.0073	-0.0462	0.0165	0.9585
53.4154	0.35922	786.1013	77.1313	-266.6587	-80.5666	837.5899	-4.8832	8.2593	-0.65704	3.0164	2.5457	8.9694	-0.0592	0.0182	-0.0073	-0.0462	0.0165	0.9585
53.4281	0.24816	794.4591	78.7608	-269.0185	-82.181	844.4093	-3.7478	3.4651	-0.35135	1.2584	1.7946	4.0675	-0.0592	0.0182	-0.0073	-0.0462	0.0165	0.9585
53.4409	0.28793	798.26	79.747	-269.9676	-83.0503	846.2499	-2.6141	0.76892	-0.17679	0.27766	1.1831	1.2855	-0.0592	0.0182	-0.0073	-0.0462	0.0165	0.9585
53.4537	0.57248	797.7059	80.0213	-269.5928	-83.0553	843.3185	-1.6201	-0.43702	-0.10211	-0.14877	0.73527	0.022044	-0.0592	0.0182	-0.0073	-0.0462	0.0165	0.9585
53.4665	1.167	793.3881	79.5623	-268.0979	-82.1333	836.2363	-0.85814	-0.65867	-0.092108	-0.21122	0.44652	-0.20912	-0.0592	0.0182	-0.0073	-0.0462	0.0165	0.9585
53.4793	2.1178	786.2053	78.4249	-265.7726	-80.3255	825.9669	-0.31615	-0.33368	-0.11682	-0.070194	0.28274	0.12821	-0.0592	0.0182	-0.0073	-0.0462	0.0165	0.9585
53.4921	3.4225	777.2235	76.7406	-262.9491	-77.7741	813.6572	0.026132	0.27378	-0.15597	0.17037	0.20956	0.76384	-0.0592	0.0182	-0.0073	-0.0462	0.0165	0.9585
53.5049	5.0596	767.5622	74.6803	-259.9696	-74.6733	800.5017	0.22583	0.98218	-0.19634	0.44072	0.18747	1.4995	-0.0592	0.0182	-0.0073	-0.0462	0.0165	0.9585
53.5176	7.0093	758.2523	72.4439	-257.1479	-71.2411	787.5962	0.31547	1.6687	-0.22731	0.69626	0.18949	2.2073	-0.0592	0.0182	-0.0073	-0.0462	0.0165	0.9585
53.5304	9.2448	750.1417	70.2179	-254.7413	-67.6849	775.8398	0.32858	2.2811	-0.24669	0.91725	0.20181	2.8444	-0.0592	0.0182	-0.0073	-0.0462	0.0165	0.9585
53.5432	11.7281	743.8314	68.1659	-252.9294	-64.1921	765.8587	0.308	2.7732	-0.26114	1.0909	0.22237	3.3574	-0.0592	0.0182	-0.0073	-0.0462	0.0165	0.9585
53.556	14.4323	739.6521	66.4	-251.8061	-60.8954	757.997	0.23614	3.1171	-0.27594	1.21	0.25972	3.7273	-0.0592	0.0182	-0.0073	-0.0462	0.0165	0.9585
53.5688	17.3122	737.6212	65.0017	-251.367	-57.8993	752.2793	0.15712	3.2708	-0.30023	1.26	0.31138	3.886	-0.0592	0.0182	-0.0073	-0.0462	0.0165	0.9585
53.5816	20.3128	737.5069	64.011	-251.5259	-55.2682	748.4762	0.060608	3.1929	-0.33442	1.2211	0.38136	3.79	-0.0592	0.0182	-0.0073	-0.0462	0.0165	0.9585
53.5944	23.4092	738.8857	63.4541	-252.1343	-53.0411	746.1598	-0.034049	2.7779	-0.37457	1.0541	0.46183	3.306	-0.0592	0.0182	-0.0073	-0.0462	0.0165	0.9585
53.6071	26.5842	741.2382	63.3202	-253.0126	-51.2149	744.8179	-0.12239	1.9451	-0.4141	0.72189	0.5438	2.3379	-0.0592	0.0182	-0.0073	-0.0462	0.0165	0.9585
53.6199	29.8403	744.0253	63.5762	-253.9768	-49.757	743.907	-0.17865	0.57067	-0.44577	0.17835	0.60923	0.73014	-0.0592	0.0182	-0.0073	-0.0462	0.0165	0.9585
53.6327	33.1828	746.7808	64.1544	-254.8676	-48.6014	742.9705	-0.19029	-1.4494	-0.45038	-0.61344	0.63026	-1.6418	-0.0592	0.0182	-0.0073	-0.0462	0.0165	0.9585
53.6455	36.647	749.0904	64.9753	-255.5434	-47.6648	741.6035	-0.11852	-4.1198	-0.40888	-1.6547	0.56587	-4.7918	-0.0592	0.0182	-0.0073	-0.0462	0.0165	0.9585
53.6583	40.2322	750.5562	65.9498	-255.8621	-46.8666	739.4337	0.092836	-7.3147	-0.29581	-2.8932	0.35884	-8.5799	-0.0592	0.0182	-0.0073	-0.0462	0.0165	0.9585
53.6711	43.9546	750.7423	67.0066	-255.6613	-46.1406	736.0504	0.47894	-10.6517	-0.082197	-4.1771	-0.046213	-12.5478	-0.0592	0.0182	-0.0073	-0.0462	0.0165	0.9585
53.6839	47.7956	749.1474	68.0873	-254.7534	-45.44	731.0062	1.1282	-13.3769	0.25308	-5.2084	-0.70696	-15.8141	-0.0592	0.0182	-0.0073	-0.0462	0.0165	0.9585
53.6966	51.6952	745.2353	69.1474	-252.9449	-44.7474	723.8405	2.0831	-14.237	0.72493	-5.4979	-1.6581	-16.8902	-0.0592	0.0182	-0.0073	-0.0462	0.0165	0.9585
53.7094	55.5249	738.4634	70.1334	-250.048	-44.0619	714.1125	3.3726	-11.4254	1.3336	-4.3368	-2.9012	-13.6475	-0.0592	0.0182	-0.0073	-0.0462	0.0165	0.9585
53.7222	59.0881	728.3163	70.9623	-245.894	-43.382	701.452	4.9417	-2.5017	2.0379	-0.77617	-4.352	-3.1981	-0.0592	0.0182	-0.0073	-0.0462	0.0165	0.9585
53.735	62.119	714.2991	71.4871	-240.3344	-42.6705	685.5239	6.6142	15.4388	2.7505	6.3095	-5.8176	17.8877	-0.0592	0.0182	-0.0073	-0.0462	0.0165	0.9585
